<svg width="23" height="21" viewBox="0 0 23 21" fill="none" xmlns="http://www.w3.org/2000/svg">
<path d="M11.1866 19.1293L11.187 19.1297C11.2752 19.2083 11.3862 19.25 11.5 19.25C11.6138 19.25 11.725 19.2082 11.8131 19.1298L11.8132 19.1297C12.6676 18.3698 13.4903 17.6568 14.2129 17.0307C16.345 15.1829 18.1148 13.6458 19.3359 12.1473L19.336 12.1473C20.6753 10.5038 21.25 9.01263 21.25 7.41811C21.25 5.82993 20.7152 4.39631 19.7786 3.36312C18.834 2.32127 17.5442 1.75 16.1336 1.75C15.0942 1.75 14.1464 2.08033 13.2978 2.7478L13.2978 2.74783C12.8654 3.08782 12.4672 3.50911 12.1111 4.00959L11.4999 4.86884L10.8888 4.00948C10.533 3.50918 10.1347 3.08787 9.70237 2.7478L11.1866 19.1293ZM11.1866 19.1293C10.3352 18.3723 9.51493 17.6613 8.7943 17.0368M11.1866 19.1293L8.7943 17.0368M8.7943 17.0368L8.79337 17.036L8.7943 17.0368ZM3.2216 3.36312C4.16619 2.32127 5.45585 1.75 6.86652 1.75C7.90592 1.75 8.85369 2.08032 9.70232 2.74776L3.2216 3.36312Z" stroke="#474747" stroke-width="1.5"/>
</svg>
